<svg width="39" height="46" viewBox="0 0 39 46" fill="none" xmlns="http://www.w3.org/2000/svg">
<path d="M15.5 21.5L12.5 36.5H26.5L23.5 21.5H15.5Z" fill="#F4F6F8" stroke="#0F2D59" stroke-linecap="round" stroke-linejoin="round"/>
<path d="M13.5 26.5C5 29 0.5 38 0.5 43.5C0.5 45 7 45.5 8.5 45.5H30.5C32 45.5 38.5 45 38.5 43.5C38.5 38 34 29 25.5 26.5L20.5 27.5L19.5 35.5L18.5 27.5L13.5 26.5Z" fill="#F4F6F8" stroke="#0F2D59" stroke-linecap="round" stroke-linejoin="round"/>
<path d="M19.5 2.5C14 2.5 9.5 7.5 9.5 13.5C9.5 19.5 14 24.5 19.5 24.5C25 24.5 29.5 19.5 29.5 13.5C29.5 7.5 25 2.5 19.5 2.5Z" fill="#F4F6F8" stroke="#0F2D59" stroke-linecap="round" stroke-linejoin="round"/>
<path d="M19.5 0.5C15.5 0.5 13.5 2 12.5 4.5C9.5 5.5 8.5 9.5 9.5 13.5C11.5 11.5 12.5 9.5 13.5 6.5C24.5 14.5 23.5 3.5 29.5 13.5C30.5 5.5 25.5 0.5 19.5 0.5Z" fill="#F4F6F8" stroke="#0F2D59" stroke-linecap="round" stroke-linejoin="round"/>
<path d="M13.5 24.5C14.5 25.5 15.5 26.5 18.5 27.5C16.5 28.5 16.5 30.5 16.5 31.5C14.5 30.5 12.5 27.5 12.5 25.5L13.5 24.5Z" fill="#F4F6F8" stroke="#0F2D59" stroke-linecap="round" stroke-linejoin="round"/>
<path d="M25.5 24.5C24.5 25.5 23.5 26.5 20.5 27.5C22.5 28.5 22.5 30.5 22.5 31.5C24.5 30.5 26.5 27.5 26.5 25.5L25.5 24.5Z" fill="#F4F6F8" stroke="#0F2D59" stroke-linecap="round" stroke-linejoin="round"/>
<path d="M9.5 37.5L8.5 45.5L9.5 37.5ZM30.5 45.5L29.5 37.5Z" fill="#F4F6F8"/>
<path d="M30.5 45.5L29.5 37.5M9.5 37.5L8.5 45.5L9.5 37.5Z" stroke="#0F2D59" stroke-linecap="round" stroke-linejoin="round"/>
</svg>
