<svg width="48" height="24" viewBox="0 0 97 65" fill="currentColor" xmlns="http://www.w3.org/2000/svg">
<path d="M35.057 0.536466C29.1149 0.722266 22.6206 2.3306 17.4321 4.90276C8.29977 9.43163 2.90099 16.4572 1.0605 26.2233C0.376887 29.8406 0.306773 34.3346 0.885214 38.3874C1.75288 44.5014 4.11046 49.7618 7.84403 53.8901C12.1999 58.7034 18.6854 62.193 26.4155 63.8768C30.3945 64.7477 33.9615 65.0903 37.9054 64.98C43.611 64.8174 47.9756 64.1323 52.4103 62.6865C57.2657 61.1072 61.6215 58.5815 65.1447 55.301C65.4602 55.0049 65.7495 54.7784 65.7845 54.7958C65.8196 54.8074 65.916 54.9584 65.9949 55.1268C66.5821 56.3287 67.8616 58.2389 68.8783 59.4292C71.5339 62.5356 74.7504 64.3587 78.4839 64.8639C79.632 65.0206 81.5426 65.038 82.7346 64.8929C86.1001 64.4923 88.7907 63.18 91.2622 60.724C94.0931 57.9254 95.6268 55.1036 96.4419 51.2192C96.81 49.4773 97.0992 46.7135 96.9677 46.2432C96.8012 45.6568 96.2052 45.1749 95.3113 44.8962C94.838 44.7452 94.803 44.7452 92.4016 44.7278C89.7635 44.7046 89.2552 44.7452 88.5803 45.0297C88.1071 45.2271 87.6338 45.6103 87.4673 45.9297C87.3884 46.0865 87.292 46.5626 87.2394 47.0967C87.0729 48.8735 86.7048 50.1508 86.1088 50.9579C85.32 52.0437 84.2946 52.4443 82.2964 52.4617C81.4901 52.4675 81.3761 52.4559 80.8503 52.2875C78.37 51.5037 76.1965 48.6935 74.3998 43.9672L74.0229 42.9569L74.2333 42.4576C75.0834 40.4428 77.0816 35.1301 78.0808 32.2328C83.5847 16.1669 87.5462 4.45568 87.5462 4.18859C87.5462 3.49185 86.9239 2.84155 85.9511 2.5222L85.4515 2.35963H76.9064C68.6767 2.35963 68.3437 2.36543 67.923 2.46995C67.3621 2.6151 66.6347 3.0738 66.4068 3.42217C66.3104 3.57313 65.3901 6.22078 64.3647 9.3097C63.3305 12.3986 62.4716 14.9069 62.4366 14.8837C62.4015 14.8605 62.1649 14.5179 61.9107 14.1173C61.2709 13.1186 59.632 10.9413 58.8082 9.99484C56.9589 7.86975 54.7591 5.91305 52.8748 4.74019C48.1158 1.7732 41.9808 0.327442 35.057 0.536466ZM38.3524 9.76259C40.7626 10.0645 43.7161 12.1664 46.6784 15.6908C49.781 19.3835 53.6197 25.8111 56.6259 32.3257L56.8362 32.796L56.1 34.6191C55.6881 35.6236 55.171 37.0171 54.9519 37.7197C53.7512 41.5111 51.5689 46.1736 49.8862 48.5541C47.3533 52.125 44.1719 54.5113 40.8239 55.3648C39.5268 55.6958 38.7819 55.7713 36.9414 55.7713C35.0921 55.7655 34.2507 55.6726 32.9449 55.3184C27.5636 53.8668 24.1981 48.7515 23.1377 40.3905C22.6556 36.5758 22.6206 31.3502 23.05 27.3555C24.0667 18.0017 27.3971 12.3289 32.9974 10.4593C34.7328 9.87871 36.9676 9.5884 38.3524 9.76259Z" fill="currentColor"/>
</svg>
