<svg width="30" height="32" viewBox="0 0 30 32" fill="none" xmlns="http://www.w3.org/2000/svg">
<path d="M16.4424 0C16.7872 0.145928 17.1673 0.0914056 17.5217 0.184415C17.5521 0.192433 17.5858 0.184415 17.6147 0.19564C17.7991 0.269406 18.0781 0.171586 18.1631 0.40892C18.2513 0.655875 17.9723 0.715209 17.8424 0.845101C17.6949 0.994237 17.743 1.07923 17.9178 1.12894C18.7548 1.36788 19.4123 1.87301 19.9848 2.50804C20.4483 2.83518 20.6375 3.35475 20.9037 3.81979C21.2645 4.45001 21.3286 5.05136 20.955 5.75214C20.4547 6.69346 20.3039 7.75665 20.2045 8.81663C20.1869 9.01067 20.1773 9.21112 20.081 9.38912C19.8918 9.47411 19.701 9.55269 19.4845 9.50298C19.1574 8.72523 18.7292 7.98757 18.8414 7.07832C18.9104 6.52829 18.7789 5.98146 18.5191 5.47792C18.2978 5.04976 17.9627 4.77394 17.4864 4.64565C16.6878 4.42916 15.9197 4.57028 15.1563 4.8028C14.6801 4.94873 14.207 5.03372 13.7195 4.86214C13.689 4.84771 13.6618 4.82686 13.6393 4.7996C12.6708 3.31305 13.0877 1.78161 14.1637 0.694362C14.4315 0.423352 14.6881 0.133099 15.0649 0C15.3568 0 15.6487 0 15.9405 0C15.979 0.0416938 16.0303 0.0288649 16.0784 0.0320722C16.1378 0.0256577 16.2019 0.0497118 16.2532 0C16.3174 0 16.3799 0 16.4424 0Z" fill="#5B4160"/>
<path d="M15.0681 1.66935e-05C14.555 0.418558 14.0402 0.838704 13.6906 1.4128C13.1053 2.37015 12.977 3.35957 13.511 4.38749C13.5736 4.50776 13.6313 4.62803 13.6922 4.7483C13.5656 4.85093 13.4309 4.78679 13.3058 4.75311C12.9434 4.65689 12.5761 4.5719 12.2025 4.54945C10.6294 4.45484 9.97348 5.1027 9.79067 6.4834C9.74256 6.85223 9.69284 7.22106 9.76501 7.59951C9.81632 7.87052 9.73294 8.14474 9.60946 8.38528C9.44749 8.70119 9.29355 9.0171 9.19893 9.36027C9.1829 9.42121 9.14441 9.47253 9.09149 9.50941C8.89425 9.5511 8.72427 9.47413 8.55428 9.38914C8.40996 9.08926 8.43882 8.76052 8.39232 8.44461C8.23035 7.35256 7.96255 6.28455 7.6274 5.23419C7.48307 4.78197 7.55523 4.38107 7.82304 3.9946C8.19989 3.44617 8.68097 3.03244 9.316 2.82397C9.61106 2.72615 9.82915 2.56579 9.96867 2.28836C10.0392 2.14885 10.1274 2.01896 10.2637 1.93236C11.0896 0.846722 12.2394 0.35281 13.5383 0.118684C13.7564 0.0801971 13.9889 0.112269 14.1926 -0.00158691C14.4844 1.66935e-05 14.7763 1.66935e-05 15.0681 1.66935e-05Z" fill="#4A304F"/>
<path d="M29.6273 16.0618C29.5343 15.9367 29.5295 15.8116 29.6273 15.6865C29.6273 15.8116 29.6273 15.9367 29.6273 16.0618Z" fill="#FBAD39"/>
<path d="M29.6273 17.8113C29.5247 17.6862 29.5391 17.5611 29.6273 17.436C29.6273 17.5611 29.6273 17.6862 29.6273 17.8113Z" fill="#FCB555"/>
<path d="M16.2548 0C16.2163 0.0930093 16.1378 0.0529191 16.072 0.0529191C16.0496 0.0432974 16.0399 0.0320722 16.0464 0.0192433C16.0528 0.00641443 16.0592 0 16.0672 0C16.1297 0 16.1923 0 16.2548 0Z" fill="#9F8FA0"/>
<path d="M16.0672 0C16.0672 0.0176397 16.0688 0.0352794 16.072 0.0529191C16.0175 0.0625407 15.9694 0.0561263 15.9421 0C15.9838 0 16.0255 0 16.0672 0Z" fill="#897489"/>
<path d="M23.1391 29.1937C20.947 30.7541 18.5031 31.6425 15.8347 31.9263C15.7833 31.9311 15.732 31.9263 15.6791 31.9263C15.5829 31.8124 15.5925 31.6745 15.5925 31.5398C15.5893 29.5241 15.5909 27.5083 15.5909 25.4942C15.5909 25.3804 15.5973 25.2665 15.623 25.1543C15.6807 24.9907 15.7753 25.0516 15.8523 25.1286C16.1009 25.3739 16.3831 25.3611 16.683 25.2553C16.9444 25.1623 17.2154 25.0981 17.4784 25.0083C17.581 24.973 17.6916 24.9089 17.7895 25.0228C17.8584 25.1591 17.8424 25.3066 17.8424 25.4493C17.844 26.4019 17.8424 27.3544 17.844 28.3069C17.844 28.4 17.8408 28.493 17.8472 28.586C17.8664 28.8842 18.0027 29.0799 18.2272 29.1232C18.4886 29.1745 18.6346 29.027 18.7324 28.8105C18.8094 28.6758 18.7917 28.5282 18.7917 28.3839C18.7933 27.2197 18.7997 26.0571 18.7869 24.8929C18.7837 24.6042 18.8783 24.439 19.1493 24.3188C19.7587 24.0478 20.32 23.6918 20.8636 23.3053C21.7408 22.6815 22.2234 21.8412 22.294 20.7652C22.2988 20.7026 22.3084 20.6417 22.3373 20.5856C22.4239 20.4781 22.5265 20.5262 22.6195 20.5679C23.6074 21.0041 24.6593 21.2639 25.6423 21.7145C26.5949 22.1523 27.2989 22.7986 27.618 23.8217C27.6565 23.9451 27.6629 24.0638 27.6517 24.1889C27.0968 25.212 26.4105 26.1405 25.6263 26.9984C25.482 26.7563 25.4355 26.4756 25.3104 26.2255C25.0121 25.6257 24.6 25.1286 24.0403 24.7598C23.8543 24.6363 23.6571 24.5353 23.4294 24.6539C23.1936 24.7774 23.1487 24.9939 23.1487 25.236C23.1503 26.4516 23.1487 27.6687 23.1503 28.8842C23.1535 28.9869 23.1599 29.0911 23.1391 29.1937Z" fill="#9F4F26"/>
<path d="M12.9546 31.9263C11.3382 31.806 9.7907 31.4019 8.30416 30.7669C7.24417 30.3146 6.24031 29.7582 5.31824 29.0606C5.26532 28.9804 5.23324 28.8922 5.23485 28.796C5.25409 27.9237 5.18674 27.0497 5.28616 26.1773C5.38559 25.3018 5.86346 24.702 6.5899 24.2722C7.079 23.9836 7.6114 23.8072 8.17266 23.7222C8.20473 23.7142 8.23841 23.7126 8.27208 23.7142C8.77081 23.9627 9.23264 24.2803 9.75382 24.4871C9.81315 24.5112 9.85324 24.5593 9.87569 24.6218C9.93663 24.8992 9.90616 25.1815 9.90616 25.4605C9.91097 26.405 9.90776 27.3496 9.90776 28.2941C9.90776 28.3983 9.90616 28.501 9.91258 28.6052C9.92701 28.857 10.028 29.0558 10.2846 29.1183C10.5588 29.1841 10.7096 29.0205 10.8026 28.7832C10.8651 28.6565 10.8539 28.5202 10.8539 28.3855C10.8555 27.3993 10.8523 26.4147 10.8555 25.4284C10.8571 25.0019 10.9277 24.9538 11.3382 25.0821C11.5162 25.1382 11.6926 25.1991 11.8706 25.2536C12.1801 25.3467 12.4783 25.3851 12.7574 25.1638C12.8151 25.1173 12.8985 25.0596 12.9755 25.1526C13.0524 25.2969 13.0396 25.4557 13.0396 25.6113C13.0412 27.5564 13.0412 29.5 13.0396 31.4452C13.0412 31.6104 13.0701 31.7819 12.9546 31.9263Z" fill="#9F4F26"/>
<path d="M8.24961 23.7543C7.72042 23.9242 7.16878 24.0237 6.68128 24.3139C5.94683 24.7517 5.45773 25.3322 5.37114 26.2286C5.27973 27.1731 5.3551 28.1177 5.31982 29.0606C3.50614 27.7633 2.0661 26.1308 0.975647 24.1872C1.3092 22.7296 2.35315 21.9855 3.6665 21.5108C4.53245 21.1981 5.41604 20.9335 6.25473 20.5486C6.33651 20.6176 6.32849 20.7138 6.33491 20.8052C6.41348 21.9117 6.91381 22.7729 7.83428 23.3934C7.98502 23.4961 8.15981 23.5779 8.24961 23.7543Z" fill="#7E3419"/>
<path d="M12.9546 31.9263C12.9514 29.6572 12.9482 27.3865 12.9449 25.1174C12.8936 25.0292 12.8696 24.9506 13.0107 24.9313C13.1133 25.119 13.2705 25.2039 13.4854 25.2312C14.0562 25.305 14.6223 25.3194 15.1916 25.2168C15.3776 25.1831 15.5252 25.1109 15.615 24.941C15.7288 24.9201 15.7304 24.9762 15.6919 25.058C15.6887 27.348 15.6839 29.6379 15.6807 31.9263C14.7715 32.0241 13.8638 32.0241 12.9546 31.9263Z" fill="#FFC50E"/>
<path d="M23.1391 29.1937C23.0333 29.1183 23.067 29.006 23.067 28.9066C23.0653 27.6574 23.0637 26.4082 23.067 25.1606C23.0686 24.5881 23.5079 24.3267 23.9954 24.6234C24.7908 25.1061 25.2992 25.8197 25.5942 26.692C25.6263 26.7866 25.6183 26.8957 25.6295 26.9983C24.8903 27.8322 24.0692 28.5747 23.1391 29.1937Z" fill="#7E341A"/>
<path d="M19.2568 12.8177C19.1526 14.0493 18.7661 15.1878 18.1198 16.2414C18.0204 16.6038 17.735 16.8395 17.5153 17.1186C17.4207 17.2388 17.302 17.3399 17.1961 17.4537C16.8947 17.7584 16.5531 18.0118 16.1923 18.2411C15.9854 18.3726 15.7962 18.3806 15.5845 18.2411C14.4716 17.505 13.6393 16.5284 13.0813 15.3209C12.6339 14.3523 12.4559 13.3244 12.4158 12.2645C12.3965 11.7449 12.2827 11.2333 12.2121 10.7186C12.1031 9.91356 12.1608 9.14383 12.5954 8.43022C12.7782 8.12874 12.791 7.79359 12.7702 7.43759C12.7237 6.62937 12.8071 5.83719 13.2753 5.13641C13.3812 4.97926 13.4918 4.82691 13.6987 4.79645C14.2327 4.93436 14.7458 4.84616 15.2606 4.6858C15.8491 4.50299 16.4505 4.39073 17.0727 4.48054C18.1615 4.63769 18.6987 5.1781 18.8751 6.27016C18.9489 6.72559 18.9505 7.18262 18.9313 7.63964C18.9184 7.96197 18.9858 8.25703 19.1526 8.53285C19.3338 8.82952 19.446 9.15024 19.5086 9.49021C19.6914 9.68585 19.6721 9.9328 19.6481 10.1653C19.5615 10.996 19.4107 11.8203 19.3306 12.6525C19.3273 12.7135 19.2937 12.768 19.2568 12.8177Z" fill="#FFD69B"/>
<path d="M13.7003 4.79485C13.139 5.27112 12.9386 5.90936 12.8777 6.61174C12.8456 6.97255 12.8119 7.32695 12.8696 7.69257C12.921 8.02131 12.7718 8.32439 12.6034 8.60342C12.2282 9.22401 12.1881 9.90555 12.2827 10.5919C12.3998 11.4322 12.4912 12.2741 12.573 13.1192C12.6981 14.3956 13.1406 15.5599 13.9312 16.5782C14.4155 17.202 14.9623 17.7648 15.6455 18.185C15.8251 18.2956 15.9582 18.2956 16.1266 18.1914C16.5082 17.9557 16.8498 17.6702 17.1833 17.3735C17.6259 17.9492 17.929 18.5875 18.0701 19.3027C18.3299 20.6305 17.9338 21.8059 17.2218 22.9044C17.1593 23.0022 17.0711 23.076 16.9669 23.1289C16.412 23.4432 15.8331 23.6982 15.1981 23.7896C14.0387 23.9548 12.9226 23.8281 11.8818 23.2492C11.8097 23.2091 11.7359 23.1706 11.6894 23.0968C11.6429 22.9124 11.7968 22.8659 11.9075 22.8066C13.4309 21.9968 14.0242 20.6321 14.1862 19.006C14.2038 18.828 14.1381 18.7607 13.9729 18.743C12.9594 18.634 12.1159 18.185 11.4152 17.4537C11.1185 17.1619 10.8411 16.8524 10.5957 16.5156C10.546 16.4483 10.4995 16.3777 10.5123 16.2879C10.0906 15.5647 9.71053 14.8222 9.53413 13.9931C9.45235 13.6099 9.36896 13.2266 9.37217 12.8305C9.30642 12.7632 9.24067 12.6942 9.23747 12.5932C9.207 11.6888 8.94721 10.8068 8.97447 9.89753C8.97928 9.75481 8.95523 9.60407 9.06267 9.48059C9.19577 9.06686 9.36575 8.66917 9.56621 8.2827C9.69289 8.03895 9.6961 7.76313 9.66884 7.49051C9.62233 6.99981 9.66242 6.51231 9.77788 6.03604C10.0505 4.90871 10.7465 4.37951 12.2298 4.46611C12.7301 4.49497 13.2016 4.66977 13.6907 4.74995C13.6971 4.76438 13.7003 4.77881 13.7003 4.79485Z" fill="#FFD69B"/>
<path d="M19.2568 12.8177C19.2456 11.995 19.4428 11.1948 19.539 10.3834C19.5759 10.0771 19.547 9.78524 19.5101 9.48857C19.6914 9.42924 19.8742 9.36991 20.0682 9.3667C20.7257 9.43565 20.8732 9.95843 20.7257 10.5293C20.5765 11.1082 20.3152 11.6534 20.1756 12.2436C20.0778 12.6557 19.7635 12.8096 19.2568 12.8177Z" fill="#FFD69A"/>
<path d="M9.06268 9.47895C9.03221 10.3609 9.16852 11.2253 9.30964 12.0912C9.34973 12.335 9.27436 12.59 9.37218 12.8289C8.69385 12.7776 8.45492 12.598 8.34106 11.9501C8.24645 11.4129 7.95459 10.9495 7.84234 10.4235C7.72207 9.8574 8.0027 9.43886 8.57037 9.3667C8.73394 9.40358 8.89911 9.44207 9.06268 9.47895Z" fill="#FDC781"/>
<path d="M16.946 23.068C17.5506 22.4153 17.8536 21.6199 18.0028 20.762C18.1808 19.7405 17.9707 18.7895 17.4335 17.9043C17.3325 17.7376 17.2651 17.5499 17.1833 17.3719C17.5233 17.0175 17.8248 16.6311 18.1214 16.2414C19.0579 16.777 20.0265 17.2549 20.8957 17.9043C21.7857 18.5698 22.3004 19.4374 22.3822 20.5535C22.4175 21.4643 22.0872 22.2501 21.4858 22.9028C21.0865 23.3374 20.5701 23.6469 20.0554 23.9387C19.7491 24.1135 19.4428 24.2931 19.1189 24.431C18.9168 24.5176 18.8767 24.6315 18.8783 24.8303C18.8864 26.0475 18.8832 27.2646 18.8815 28.4817C18.8815 28.5924 18.9184 28.7126 18.8286 28.8105C18.6859 28.679 18.7276 28.5026 18.726 28.3422C18.7212 27.1299 18.7244 25.916 18.7244 24.7036C18.7244 24.5898 18.7292 24.4759 18.7164 24.3621C18.6859 24.0894 18.5464 23.9387 18.3171 23.9275C18.0813 23.9147 17.9082 24.0734 17.8633 24.346C17.8392 24.4904 17.8568 24.6363 17.8408 24.7806C17.8328 24.864 17.82 24.9458 17.7462 25.0019C17.3742 25.1222 17.0005 25.2376 16.6317 25.3659C16.2356 25.5038 15.9277 25.3996 15.692 25.0596C15.6743 25.0147 15.6567 24.9698 15.6391 24.9249C15.5444 24.7036 15.6326 24.5064 15.7754 24.3605C16.1843 23.9451 16.5595 23.5009 16.946 23.068Z" fill="#BE6440"/>
<path d="M17.7462 25.0003C17.7494 24.8031 17.7526 24.6058 17.7574 24.4086C17.767 24.0253 17.9819 23.7944 18.3155 23.8056C18.6426 23.8152 18.827 24.0301 18.827 24.4182C18.8286 25.8823 18.827 27.3464 18.8254 28.8105C18.6859 29.144 18.4678 29.2932 18.1984 29.2419C17.9242 29.1889 17.759 28.9596 17.7574 28.6149C17.7526 27.4089 17.751 26.2046 17.7462 25.0003Z" fill="#DCEDF9"/>
<path d="M10.5123 16.2863C10.809 16.6599 11.088 17.0496 11.444 17.3735C11.545 17.6285 11.3798 17.8161 11.266 18.0037C10.8474 18.6885 10.6406 19.4293 10.6566 20.2279C10.6646 20.624 10.7448 21.0121 10.849 21.3937C10.8811 21.5124 10.9356 21.6295 10.9148 21.7594C10.8218 21.9374 10.6486 21.8909 10.5027 21.8957C10.1419 21.9085 9.78104 21.8764 9.42504 21.9855C8.72907 22.1988 8.37949 22.6365 8.34421 23.3662C8.33779 23.4977 8.36666 23.6388 8.25922 23.7478L8.2512 23.7559C6.99397 23.0551 6.23867 22.0432 6.25471 20.5502C6.33008 19.3892 6.90096 18.5089 7.83105 17.8562C8.67936 17.258 9.59021 16.7609 10.5123 16.2863Z" fill="#9F4F26"/>
<path d="M8.25768 23.7463C8.25607 23.4159 8.23683 23.0872 8.36833 22.7697C8.65377 22.0801 9.23748 21.8813 9.90619 21.8091C10.2301 21.7738 10.5637 21.8877 10.8796 21.7482C10.9261 21.7353 10.9662 21.7514 10.9822 21.7915C11.141 22.2421 11.4376 22.6189 11.6541 23.0391C11.9604 23.432 12.2956 23.7992 12.6564 24.144C12.8745 24.3524 13.0877 24.5753 12.9947 24.9249C12.9771 24.9891 12.9595 25.0516 12.9434 25.1157C12.6275 25.4894 12.2378 25.4942 11.8161 25.3402C11.6413 25.2761 11.4553 25.2376 11.2853 25.1622C11.0319 25.05 10.9325 25.0708 10.9389 25.3932C10.9582 26.4211 10.9469 27.4506 10.9453 28.4801C10.9453 28.5908 10.9806 28.711 10.8956 28.8088C10.7449 28.6806 10.7882 28.5042 10.7882 28.3438C10.7834 27.1299 10.7866 25.9175 10.785 24.7036C10.785 24.5785 10.7898 24.4551 10.7753 24.33C10.7497 24.1119 10.6455 23.9563 10.4145 23.9275C10.1836 23.8986 10.0489 24.0333 9.9559 24.2257C9.90298 24.3364 9.91741 24.4759 9.80997 24.5625C9.2439 24.3845 8.74357 24.0798 8.25768 23.7463Z" fill="#BE6440"/>
<path d="M9.81152 24.5641C9.82275 24.4502 9.82115 24.3348 9.8468 24.2257C9.91095 23.9483 10.1403 23.7799 10.4193 23.8088C10.7079 23.8377 10.8763 24.0077 10.8924 24.2931C10.9084 24.5834 10.8972 24.8736 10.8972 25.1655C10.8972 26.381 10.8988 27.5965 10.8988 28.8105C10.7641 29.1408 10.5428 29.2931 10.2718 29.2402C9.99754 29.1857 9.82916 28.958 9.82916 28.6132C9.82596 27.3768 9.82916 26.1421 9.82756 24.9057C9.82596 24.7902 9.81633 24.6764 9.81152 24.5641Z" fill="#DCEDF9"/>
<path d="M12.9963 24.9265C12.9514 24.5529 12.7141 24.3091 12.4559 24.0622C12.1432 23.7623 11.8433 23.4464 11.622 23.0663C11.6429 23.0439 11.6685 23.0375 11.6974 23.0503C13.3876 24.006 15.089 24.0381 16.8017 23.1144C16.845 23.0904 16.8979 23.0824 16.946 23.0679C16.752 23.5009 16.4072 23.8168 16.0752 24.1375C15.8459 24.3604 15.6535 24.5898 15.639 24.9249C15.6519 25.1366 15.5861 25.2344 15.344 25.2825C14.6657 25.4204 13.9953 25.3948 13.3202 25.3018C13.1053 25.2713 12.9594 25.1767 12.9963 24.9265Z" fill="#FFDC00"/>
<path d="M11.6974 23.0503C11.6718 23.0551 11.6477 23.0599 11.622 23.0663C11.3045 22.667 11.0768 22.2164 10.8812 21.7498C10.3969 20.4075 10.4578 19.115 11.2356 17.8883C11.335 17.7327 11.4168 17.5627 11.444 17.3751C11.9059 17.8097 12.3822 18.2218 12.9963 18.4367C13.3604 18.5634 13.7372 18.6227 14.1141 18.6853C14.2039 18.6997 14.3161 18.674 14.3001 18.8232C14.2215 19.556 14.0948 20.2793 13.7757 20.9528C13.3668 21.8139 12.7622 22.489 11.8882 22.9012C11.8145 22.9364 11.7327 22.9637 11.6974 23.0503Z" fill="#FFD69B"/>
</svg>
